<mxfile host="app.diagrams.net" agent="Mozilla/5.0 (Macintosh; Intel Mac OS X 10_15_7) AppleWebKit/537.36 (KHTML, like Gecko) Chrome/140.0.0.0 Safari/537.36" version="28.2.4">
  <diagram id="LhVTmfn_bVOVVTIXNYQG" name="Page-1">
    <mxGraphModel dx="976" dy="565" grid="1" gridSize="10" guides="1" tooltips="1" connect="1" arrows="1" fold="1" page="1" pageScale="1" pageWidth="850" pageHeight="1100" math="0" shadow="0">
      <root>
        <mxCell id="0" />
        <mxCell id="1" parent="0" />
        <mxCell id="ZmeEktutjG4ah9AQzQX6-1" value="" style="swimlane;startSize=0;" parent="1" vertex="1">
          <mxGeometry x="200" y="80" width="480" height="240" as="geometry" />
        </mxCell>
        <mxCell id="ZmeEktutjG4ah9AQzQX6-11" style="edgeStyle=orthogonalEdgeStyle;rounded=0;orthogonalLoop=1;jettySize=auto;html=1;exitX=1;exitY=0.5;exitDx=0;exitDy=0;entryX=0;entryY=0.5;entryDx=0;entryDy=0;" parent="ZmeEktutjG4ah9AQzQX6-1" source="ZmeEktutjG4ah9AQzQX6-4" target="ZmeEktutjG4ah9AQzQX6-5" edge="1">
          <mxGeometry relative="1" as="geometry" />
        </mxCell>
        <mxCell id="ZmeEktutjG4ah9AQzQX6-4" value="Retrieval service" style="rounded=1;whiteSpace=wrap;html=1;" parent="ZmeEktutjG4ah9AQzQX6-1" vertex="1">
          <mxGeometry x="40" y="160" width="80" height="40" as="geometry" />
        </mxCell>
        <mxCell id="ZmeEktutjG4ah9AQzQX6-12" style="edgeStyle=orthogonalEdgeStyle;rounded=0;orthogonalLoop=1;jettySize=auto;html=1;exitX=1;exitY=0.5;exitDx=0;exitDy=0;entryX=0;entryY=0.5;entryDx=0;entryDy=0;" parent="ZmeEktutjG4ah9AQzQX6-1" source="ZmeEktutjG4ah9AQzQX6-5" target="ZmeEktutjG4ah9AQzQX6-6" edge="1">
          <mxGeometry relative="1" as="geometry" />
        </mxCell>
        <mxCell id="ZmeEktutjG4ah9AQzQX6-16" style="edgeStyle=orthogonalEdgeStyle;rounded=0;orthogonalLoop=1;jettySize=auto;html=1;exitX=0.5;exitY=0;exitDx=0;exitDy=0;" parent="ZmeEktutjG4ah9AQzQX6-1" source="ZmeEktutjG4ah9AQzQX6-5" target="ZmeEktutjG4ah9AQzQX6-8" edge="1">
          <mxGeometry relative="1" as="geometry" />
        </mxCell>
        <mxCell id="ZmeEktutjG4ah9AQzQX6-5" value="Ranking service" style="rounded=1;whiteSpace=wrap;html=1;" parent="ZmeEktutjG4ah9AQzQX6-1" vertex="1">
          <mxGeometry x="200" y="160" width="80" height="40" as="geometry" />
        </mxCell>
        <mxCell id="ZmeEktutjG4ah9AQzQX6-6" value="Re-ranking service" style="rounded=1;whiteSpace=wrap;html=1;" parent="ZmeEktutjG4ah9AQzQX6-1" vertex="1">
          <mxGeometry x="360" y="160" width="80" height="40" as="geometry" />
        </mxCell>
        <mxCell id="ZmeEktutjG4ah9AQzQX6-15" style="edgeStyle=orthogonalEdgeStyle;rounded=0;orthogonalLoop=1;jettySize=auto;html=1;exitX=0.5;exitY=1;exitDx=0;exitDy=0;" parent="ZmeEktutjG4ah9AQzQX6-1" source="ZmeEktutjG4ah9AQzQX6-8" target="ZmeEktutjG4ah9AQzQX6-5" edge="1">
          <mxGeometry relative="1" as="geometry" />
        </mxCell>
        <mxCell id="ZmeEktutjG4ah9AQzQX6-8" value="ML model" style="rounded=1;whiteSpace=wrap;html=1;" parent="ZmeEktutjG4ah9AQzQX6-1" vertex="1">
          <mxGeometry x="200" y="40" width="80" height="40" as="geometry" />
        </mxCell>
        <mxCell id="ZmeEktutjG4ah9AQzQX6-17" value="Prediction pipeline" style="text;html=1;align=center;verticalAlign=middle;whiteSpace=wrap;rounded=0;" parent="ZmeEktutjG4ah9AQzQX6-1" vertex="1">
          <mxGeometry width="120" height="40" as="geometry" />
        </mxCell>
        <mxCell id="Fgx8i_KIpPscyPWHj_nG-1" style="edgeStyle=orthogonalEdgeStyle;rounded=0;orthogonalLoop=1;jettySize=auto;html=1;exitX=1;exitY=0.5;exitDx=0;exitDy=0;entryX=0;entryY=0.5;entryDx=0;entryDy=0;" parent="1" source="ZmeEktutjG4ah9AQzQX6-2" target="ZmeEktutjG4ah9AQzQX6-4" edge="1">
          <mxGeometry relative="1" as="geometry" />
        </mxCell>
        <mxCell id="ZmeEktutjG4ah9AQzQX6-2" value="User" style="rounded=1;whiteSpace=wrap;html=1;" parent="1" vertex="1">
          <mxGeometry x="80" y="240" width="80" height="40" as="geometry" />
        </mxCell>
        <mxCell id="ZmeEktutjG4ah9AQzQX6-3" value="Personalized feed for the user" style="rounded=1;whiteSpace=wrap;html=1;" parent="1" vertex="1">
          <mxGeometry x="720" y="240" width="120" height="40" as="geometry" />
        </mxCell>
        <mxCell id="ZmeEktutjG4ah9AQzQX6-18" value="" style="swimlane;startSize=0;" parent="1" vertex="1">
          <mxGeometry x="200" y="360" width="520" height="200" as="geometry" />
        </mxCell>
        <mxCell id="ZmeEktutjG4ah9AQzQX6-24" style="edgeStyle=orthogonalEdgeStyle;rounded=0;orthogonalLoop=1;jettySize=auto;html=1;exitX=1;exitY=0.5;exitDx=0;exitDy=0;entryX=0;entryY=0.5;entryDx=0;entryDy=0;" parent="ZmeEktutjG4ah9AQzQX6-18" source="ZmeEktutjG4ah9AQzQX6-19" target="ZmeEktutjG4ah9AQzQX6-20" edge="1">
          <mxGeometry relative="1" as="geometry" />
        </mxCell>
        <mxCell id="ZmeEktutjG4ah9AQzQX6-25" style="edgeStyle=orthogonalEdgeStyle;rounded=0;orthogonalLoop=1;jettySize=auto;html=1;exitX=0.5;exitY=1;exitDx=0;exitDy=0;entryX=0;entryY=0.5;entryDx=0;entryDy=0;" parent="ZmeEktutjG4ah9AQzQX6-18" source="ZmeEktutjG4ah9AQzQX6-19" target="ZmeEktutjG4ah9AQzQX6-22" edge="1">
          <mxGeometry relative="1" as="geometry" />
        </mxCell>
        <mxCell id="ZmeEktutjG4ah9AQzQX6-19" value="Data store" style="rounded=1;whiteSpace=wrap;html=1;" parent="ZmeEktutjG4ah9AQzQX6-18" vertex="1">
          <mxGeometry x="40" y="40" width="80" height="40" as="geometry" />
        </mxCell>
        <mxCell id="ZmeEktutjG4ah9AQzQX6-20" value="Online feature&amp;nbsp; computation" style="rounded=1;whiteSpace=wrap;html=1;" parent="ZmeEktutjG4ah9AQzQX6-18" vertex="1">
          <mxGeometry x="200" y="40" width="120" height="40" as="geometry" />
        </mxCell>
        <mxCell id="ZmeEktutjG4ah9AQzQX6-21" value="Feature store" style="rounded=1;whiteSpace=wrap;html=1;" parent="ZmeEktutjG4ah9AQzQX6-18" vertex="1">
          <mxGeometry x="400" y="40" width="80" height="40" as="geometry" />
        </mxCell>
        <mxCell id="ZmeEktutjG4ah9AQzQX6-28" style="edgeStyle=orthogonalEdgeStyle;rounded=0;orthogonalLoop=1;jettySize=auto;html=1;exitX=1;exitY=0.5;exitDx=0;exitDy=0;" parent="ZmeEktutjG4ah9AQzQX6-18" source="ZmeEktutjG4ah9AQzQX6-22" target="ZmeEktutjG4ah9AQzQX6-21" edge="1">
          <mxGeometry relative="1" as="geometry" />
        </mxCell>
        <mxCell id="ZmeEktutjG4ah9AQzQX6-22" value="Batch feature computation" style="rounded=1;whiteSpace=wrap;html=1;" parent="ZmeEktutjG4ah9AQzQX6-18" vertex="1">
          <mxGeometry x="200" y="120" width="120" height="40" as="geometry" />
        </mxCell>
        <mxCell id="ZmeEktutjG4ah9AQzQX6-32" value="Data prediction pipeline" style="text;html=1;align=center;verticalAlign=middle;whiteSpace=wrap;rounded=0;" parent="ZmeEktutjG4ah9AQzQX6-18" vertex="1">
          <mxGeometry width="120" height="40" as="geometry" />
        </mxCell>
        <mxCell id="Fgx8i_KIpPscyPWHj_nG-3" style="edgeStyle=orthogonalEdgeStyle;rounded=0;orthogonalLoop=1;jettySize=auto;html=1;exitX=1;exitY=0.5;exitDx=0;exitDy=0;entryX=0;entryY=0.5;entryDx=0;entryDy=0;" parent="1" source="ZmeEktutjG4ah9AQzQX6-23" target="ZmeEktutjG4ah9AQzQX6-19" edge="1">
          <mxGeometry relative="1" as="geometry" />
        </mxCell>
        <mxCell id="ZmeEktutjG4ah9AQzQX6-23" value="Stream of interaction data" style="rounded=1;whiteSpace=wrap;html=1;" parent="1" vertex="1">
          <mxGeometry x="40" y="400" width="120" height="40" as="geometry" />
        </mxCell>
        <mxCell id="ZmeEktutjG4ah9AQzQX6-29" style="edgeStyle=orthogonalEdgeStyle;rounded=0;orthogonalLoop=1;jettySize=auto;html=1;exitX=0.5;exitY=0;exitDx=0;exitDy=0;entryX=0.75;entryY=1;entryDx=0;entryDy=0;" parent="1" source="ZmeEktutjG4ah9AQzQX6-21" target="ZmeEktutjG4ah9AQzQX6-5" edge="1">
          <mxGeometry relative="1" as="geometry" />
        </mxCell>
        <mxCell id="Fgx8i_KIpPscyPWHj_nG-2" style="edgeStyle=orthogonalEdgeStyle;rounded=0;orthogonalLoop=1;jettySize=auto;html=1;exitX=1;exitY=0.5;exitDx=0;exitDy=0;entryX=0;entryY=0.5;entryDx=0;entryDy=0;" parent="1" source="ZmeEktutjG4ah9AQzQX6-6" target="ZmeEktutjG4ah9AQzQX6-3" edge="1">
          <mxGeometry relative="1" as="geometry" />
        </mxCell>
        <mxCell id="n-qHFzNtl7jYcF_RWVUC-3" style="edgeStyle=orthogonalEdgeStyle;rounded=0;orthogonalLoop=1;jettySize=auto;html=1;exitX=0.25;exitY=0;exitDx=0;exitDy=0;entryX=0.25;entryY=1;entryDx=0;entryDy=0;" edge="1" parent="1" source="ZmeEktutjG4ah9AQzQX6-20" target="ZmeEktutjG4ah9AQzQX6-5">
          <mxGeometry relative="1" as="geometry" />
        </mxCell>
      </root>
    </mxGraphModel>
  </diagram>
</mxfile>
